<svg width="820" height="248" viewBox="0 0 820 248" fill="none" xmlns="http://www.w3.org/2000/svg">
<rect width="820" height="248" fill="#774FD1"/>
<path d="M265.759 20.3721H213.803C199.978 20.3721 193 27.0833 193 40.3766V111.522C193 113.265 193.936 114.338 195.952 114.338H211.658C213.537 114.338 214.747 113.265 214.747 111.522V108.821C214.747 102.231 217.524 98.6399 224.426 97.9475H265.759C280.924 97.9475 287.772 91.3731 287.772 77.0071V41.3125C287.772 26.9464 280.924 20.3721 265.759 20.3721ZM266.048 70.9654C266.048 78.7572 264.283 80.3627 255.015 80.3627H233.001C223.741 80.3627 217.829 83.452 214.739 89.4937V45.6117C214.739 39.57 216.216 37.9568 223.596 37.9568H255.015C264.283 37.9568 266.048 39.57 266.048 47.3542V70.9654Z" fill="white"/>
<path d="M337.574 59.7038C325.628 59.7038 320.522 65.7455 320.522 75.9494V111.789C320.522 113.402 319.715 114.338 317.836 114.338H303.607C301.727 114.338 300.791 113.402 300.791 111.789V46.2813C300.791 44.6681 301.727 43.7246 303.607 43.7246H315.553C317.303 43.7246 318.239 44.6681 318.239 46.2813V56.8504C320.522 48.1303 327.104 43.6942 338.784 43.6942H343.616C345.358 43.6942 346.294 44.6377 346.294 46.2508V57.1548C346.294 58.8973 345.358 59.7038 343.616 59.7038H337.574Z" fill="white"/>
<path d="M430.193 95.1397C430.193 108.433 424.288 114.338 410.196 114.338H375.293C361.33 114.338 355.288 108.433 355.288 95.1397V62.9377C355.288 49.6521 361.33 43.7398 375.293 43.7398H410.196C424.288 43.7398 430.193 49.6521 430.193 62.9377V95.1397ZM410.462 68.0283C410.462 61.043 409.123 59.7038 400.799 59.7038H384.819C376.366 59.7038 375.019 61.043 375.019 68.0283V90.0416C375.019 97.0192 376.366 98.366 384.819 98.366H400.799C409.123 98.366 410.462 97.0192 410.462 90.0416V68.0283Z" fill="white"/>
<path d="M450.06 59.7038H443.341C441.591 59.7038 440.655 58.8973 440.655 57.1548V46.2813C440.655 44.6681 441.591 43.7246 443.341 43.7246H450.053V35.0045C450.06 21.7113 457.038 15 470.864 15H487.376C489.255 15 490.062 15.9435 490.062 17.5491V28.4226C490.062 30.1727 489.255 30.9716 487.376 30.9716H478.656C471.267 30.9716 469.791 32.5848 469.791 38.6264V43.7246H487.376C489.255 43.7246 490.062 44.6681 490.062 46.2813V57.1548C490.062 58.8973 489.255 59.7038 487.376 59.7038H469.791V111.789C469.791 113.402 468.855 114.338 466.975 114.338H452.746C450.867 114.338 450.06 113.402 450.06 111.789V59.7038Z" fill="white"/>
<path d="M504.831 59.7038H498.127C496.385 59.7038 495.449 58.8973 495.449 57.1548V46.2813C495.449 44.6681 496.385 43.7246 498.127 43.7246H504.846V35.0045C504.831 21.7113 511.824 15 525.634 15H542.146C544.026 15 544.832 15.9435 544.832 17.5491V28.4226C544.832 30.1727 544.026 30.9716 542.146 30.9716H533.419C526.038 30.9716 524.562 32.5848 524.562 38.6264V43.7246H542.146C544.026 43.7246 544.832 44.6681 544.832 46.2813V57.1548C544.832 58.8973 544.026 59.7038 542.146 59.7038H524.562V111.789C524.562 113.402 523.618 114.338 521.739 114.338H507.509C505.63 114.338 504.831 113.402 504.831 111.789V59.7038Z" fill="white"/>
<path d="M604.831 141.723H575.566C562.417 141.723 556.779 136.625 556.779 124.001V122.662C556.74 122.302 556.782 121.937 556.904 121.596C557.025 121.254 557.221 120.944 557.479 120.689C557.736 120.434 558.047 120.24 558.39 120.122C558.733 120.004 559.097 119.964 559.457 120.006H573.154C575.033 120.006 575.969 120.95 575.969 122.692V123.362C575.969 126.048 577.453 127.121 580.405 127.121H597.32C605.371 127.121 607.387 125.112 607.387 118.264V97.0876C604.298 103.129 598.393 106.219 589.125 106.219H575.429C561.466 106.219 555.287 100.314 555.287 87.0207V46.2813C555.269 45.9295 555.327 45.5779 555.458 45.2507C555.588 44.9235 555.788 44.6283 556.043 44.3854C556.298 44.1426 556.602 43.9578 556.936 43.8437C557.269 43.7296 557.623 43.689 557.973 43.7246H572.34C574.082 43.7246 575.026 44.6681 575.026 46.2813V81.9606C575.026 88.9382 576.502 90.2851 584.826 90.2851H595.03C603.887 90.2851 607.38 86.6555 607.38 79.2746V46.2813C607.38 44.6681 608.316 43.7246 610.066 43.7246H624.439C624.783 43.6914 625.13 43.7348 625.455 43.8517C625.78 43.9685 626.075 44.156 626.318 44.4004C626.562 44.6449 626.749 44.9404 626.864 45.2656C626.98 45.5909 627.023 45.9377 626.989 46.2813V120.379C626.981 134.464 619.463 141.723 604.831 141.723Z" fill="white"/>
<path d="M269.943 178.252C268.287 178.252 266.799 177.964 265.479 177.388C264.183 176.788 263.163 175.972 262.419 174.94C261.675 173.884 261.291 172.672 261.267 171.304H264.759C264.879 172.48 265.359 173.476 266.199 174.292C267.063 175.084 268.311 175.48 269.943 175.48C271.503 175.48 272.727 175.096 273.615 174.328C274.527 173.536 274.983 172.528 274.983 171.304C274.983 170.344 274.719 169.564 274.191 168.964C273.663 168.364 273.003 167.908 272.211 167.596C271.419 167.284 270.351 166.948 269.007 166.588C267.351 166.156 266.019 165.724 265.011 165.292C264.027 164.86 263.175 164.188 262.455 163.276C261.759 162.34 261.411 161.092 261.411 159.532C261.411 158.164 261.759 156.952 262.455 155.896C263.151 154.84 264.123 154.024 265.371 153.448C266.643 152.872 268.095 152.584 269.727 152.584C272.079 152.584 273.999 153.172 275.487 154.348C276.999 155.524 277.851 157.084 278.043 159.028H274.443C274.323 158.068 273.819 157.228 272.931 156.508C272.043 155.764 270.867 155.392 269.403 155.392C268.035 155.392 266.919 155.752 266.055 156.472C265.191 157.168 264.759 158.152 264.759 159.424C264.759 160.336 265.011 161.08 265.515 161.656C266.043 162.232 266.679 162.676 267.423 162.988C268.191 163.276 269.259 163.612 270.627 163.996C272.283 164.452 273.615 164.908 274.623 165.364C275.631 165.796 276.495 166.48 277.215 167.416C277.935 168.328 278.295 169.576 278.295 171.16C278.295 172.384 277.971 173.536 277.323 174.616C276.675 175.696 275.715 176.572 274.443 177.244C273.171 177.916 271.671 178.252 269.943 178.252ZM300.612 158.272V178H297.336V175.084C296.712 176.092 295.836 176.884 294.708 177.46C293.604 178.012 292.38 178.288 291.036 178.288C289.5 178.288 288.12 177.976 286.896 177.352C285.672 176.704 284.7 175.744 283.98 174.472C283.284 173.2 282.936 171.652 282.936 169.828V158.272H286.176V169.396C286.176 171.34 286.668 172.84 287.652 173.896C288.636 174.928 289.98 175.444 291.684 175.444C293.436 175.444 294.816 174.904 295.824 173.824C296.832 172.744 297.336 171.172 297.336 169.108V158.272H300.612ZM304.919 168.064C304.919 166.048 305.327 164.284 306.143 162.772C306.959 161.236 308.075 160.048 309.491 159.208C310.931 158.368 312.527 157.948 314.279 157.948C316.007 157.948 317.507 158.32 318.779 159.064C320.051 159.808 320.999 160.744 321.623 161.872V158.272H324.935V178H321.623V174.328C320.975 175.48 320.003 176.44 318.707 177.208C317.435 177.952 315.947 178.324 314.243 178.324C312.491 178.324 310.907 177.892 309.491 177.028C308.075 176.164 306.959 174.952 306.143 173.392C305.327 171.832 304.919 170.056 304.919 168.064ZM321.623 168.1C321.623 166.612 321.323 165.316 320.723 164.212C320.123 163.108 319.307 162.268 318.275 161.692C317.267 161.092 316.151 160.792 314.927 160.792C313.703 160.792 312.587 161.08 311.579 161.656C310.571 162.232 309.767 163.072 309.167 164.176C308.567 165.28 308.267 166.576 308.267 168.064C308.267 169.576 308.567 170.896 309.167 172.024C309.767 173.128 310.571 173.98 311.579 174.58C312.587 175.156 313.703 175.444 314.927 175.444C316.151 175.444 317.267 175.156 318.275 174.58C319.307 173.98 320.123 173.128 320.723 172.024C321.323 170.896 321.623 169.588 321.623 168.1ZM343.345 161.908C343.993 160.78 344.953 159.844 346.225 159.1C347.521 158.332 349.021 157.948 350.725 157.948C352.477 157.948 354.061 158.368 355.477 159.208C356.917 160.048 358.045 161.236 358.861 162.772C359.677 164.284 360.085 166.048 360.085 168.064C360.085 170.056 359.677 171.832 358.861 173.392C358.045 174.952 356.917 176.164 355.477 177.028C354.061 177.892 352.477 178.324 350.725 178.324C349.045 178.324 347.557 177.952 346.261 177.208C344.989 176.44 344.017 175.492 343.345 174.364V187.36H340.069V158.272H343.345V161.908ZM356.737 168.064C356.737 166.576 356.437 165.28 355.837 164.176C355.237 163.072 354.421 162.232 353.389 161.656C352.381 161.08 351.265 160.792 350.041 160.792C348.841 160.792 347.725 161.092 346.693 161.692C345.685 162.268 344.869 163.12 344.245 164.248C343.645 165.352 343.345 166.636 343.345 168.1C343.345 169.588 343.645 170.896 344.245 172.024C344.869 173.128 345.685 173.98 346.693 174.58C347.725 175.156 348.841 175.444 350.041 175.444C351.265 175.444 352.381 175.156 353.389 174.58C354.421 173.98 355.237 173.128 355.837 172.024C356.437 170.896 356.737 169.576 356.737 168.064ZM367.673 151.36V178H364.397V151.36H367.673ZM372.032 168.064C372.032 166.048 372.44 164.284 373.256 162.772C374.072 161.236 375.188 160.048 376.604 159.208C378.044 158.368 379.64 157.948 381.392 157.948C383.12 157.948 384.62 158.32 385.892 159.064C387.164 159.808 388.112 160.744 388.736 161.872V158.272H392.048V178H388.736V174.328C388.088 175.48 387.116 176.44 385.82 177.208C384.548 177.952 383.06 178.324 381.356 178.324C379.604 178.324 378.02 177.892 376.604 177.028C375.188 176.164 374.072 174.952 373.256 173.392C372.44 171.832 372.032 170.056 372.032 168.064ZM388.736 168.1C388.736 166.612 388.436 165.316 387.836 164.212C387.236 163.108 386.42 162.268 385.388 161.692C384.38 161.092 383.264 160.792 382.04 160.792C380.816 160.792 379.7 161.08 378.692 161.656C377.684 162.232 376.88 163.072 376.28 164.176C375.68 165.28 375.38 166.576 375.38 168.064C375.38 169.576 375.68 170.896 376.28 172.024C376.88 173.128 377.684 173.98 378.692 174.58C379.7 175.156 380.816 175.444 382.04 175.444C383.264 175.444 384.38 175.156 385.388 174.58C386.42 173.98 387.236 173.128 387.836 172.024C388.436 170.896 388.736 169.588 388.736 168.1ZM405.613 160.972H401.473V178H398.197V160.972H395.641V158.272H398.197V156.868C398.197 154.66 398.761 153.052 399.889 152.044C401.041 151.012 402.877 150.496 405.396 150.496V153.232C403.957 153.232 402.937 153.52 402.337 154.096C401.761 154.648 401.473 155.572 401.473 156.868V158.272H405.613V160.972ZM418.036 178.324C416.188 178.324 414.508 177.904 412.996 177.064C411.508 176.224 410.332 175.036 409.468 173.5C408.628 171.94 408.208 170.14 408.208 168.1C408.208 166.084 408.64 164.308 409.504 162.772C410.392 161.212 411.592 160.024 413.104 159.208C414.616 158.368 416.308 157.948 418.18 157.948C420.052 157.948 421.744 158.368 423.256 159.208C424.768 160.024 425.956 161.2 426.82 162.736C427.708 164.272 428.152 166.06 428.152 168.1C428.152 170.14 427.696 171.94 426.784 173.5C425.896 175.036 424.684 176.224 423.148 177.064C421.612 177.904 419.908 178.324 418.036 178.324ZM418.036 175.444C419.212 175.444 420.316 175.168 421.348 174.616C422.38 174.064 423.208 173.236 423.832 172.132C424.48 171.028 424.804 169.684 424.804 168.1C424.804 166.516 424.492 165.172 423.868 164.068C423.244 162.964 422.428 162.148 421.42 161.62C420.412 161.068 419.32 160.792 418.144 160.792C416.944 160.792 415.84 161.068 414.832 161.62C413.848 162.148 413.056 162.964 412.456 164.068C411.856 165.172 411.556 166.516 411.556 168.1C411.556 169.708 411.844 171.064 412.42 172.168C413.02 173.272 413.812 174.1 414.796 174.652C415.78 175.18 416.86 175.444 418.036 175.444ZM435.736 161.476C436.312 160.348 437.128 159.472 438.184 158.848C439.264 158.224 440.572 157.912 442.108 157.912V161.296H441.244C437.572 161.296 435.736 163.288 435.736 167.272V178H432.46V158.272H435.736V161.476ZM469.613 157.912C471.149 157.912 472.517 158.236 473.717 158.884C474.917 159.508 475.865 160.456 476.561 161.728C477.257 163 477.605 164.548 477.605 166.372V178H474.365V166.84C474.365 164.872 473.873 163.372 472.889 162.34C471.929 161.284 470.621 160.756 468.965 160.756C467.261 160.756 465.905 161.308 464.897 162.412C463.889 163.492 463.385 165.064 463.385 167.128V178H460.145V166.84C460.145 164.872 459.653 163.372 458.669 162.34C457.709 161.284 456.401 160.756 454.745 160.756C453.041 160.756 451.685 161.308 450.677 162.412C449.669 163.492 449.165 165.064 449.165 167.128V178H445.889V158.272H449.165V161.116C449.813 160.084 450.677 159.292 451.757 158.74C452.861 158.188 454.073 157.912 455.393 157.912C457.049 157.912 458.513 158.284 459.785 159.028C461.057 159.772 462.005 160.864 462.629 162.304C463.181 160.912 464.093 159.832 465.365 159.064C466.637 158.296 468.053 157.912 469.613 157.912ZM481.755 168.064C481.755 166.048 482.163 164.284 482.979 162.772C483.795 161.236 484.911 160.048 486.327 159.208C487.767 158.368 489.363 157.948 491.115 157.948C492.843 157.948 494.343 158.32 495.615 159.064C496.887 159.808 497.835 160.744 498.459 161.872V158.272H501.771V178H498.459V174.328C497.811 175.48 496.839 176.44 495.543 177.208C494.271 177.952 492.783 178.324 491.079 178.324C489.327 178.324 487.743 177.892 486.327 177.028C484.911 176.164 483.795 174.952 482.979 173.392C482.163 171.832 481.755 170.056 481.755 168.064ZM498.459 168.1C498.459 166.612 498.159 165.316 497.559 164.212C496.959 163.108 496.143 162.268 495.111 161.692C494.103 161.092 492.987 160.792 491.763 160.792C490.539 160.792 489.423 161.08 488.415 161.656C487.407 162.232 486.603 163.072 486.003 164.176C485.403 165.28 485.103 166.576 485.103 168.064C485.103 169.576 485.403 170.896 486.003 172.024C486.603 173.128 487.407 173.98 488.415 174.58C489.423 175.156 490.539 175.444 491.763 175.444C492.987 175.444 494.103 175.156 495.111 174.58C496.143 173.98 496.959 173.128 497.559 172.024C498.159 170.896 498.459 169.588 498.459 168.1ZM515.681 168.064C515.681 166.048 516.089 164.284 516.905 162.772C517.721 161.236 518.837 160.048 520.253 159.208C521.693 158.368 523.301 157.948 525.077 157.948C526.613 157.948 528.041 158.308 529.361 159.028C530.681 159.724 531.689 160.648 532.385 161.8V151.36H535.697V178H532.385V174.292C531.737 175.468 530.777 176.44 529.505 177.208C528.233 177.952 526.745 178.324 525.041 178.324C523.289 178.324 521.693 177.892 520.253 177.028C518.837 176.164 517.721 174.952 516.905 173.392C516.089 171.832 515.681 170.056 515.681 168.064ZM532.385 168.1C532.385 166.612 532.085 165.316 531.485 164.212C530.885 163.108 530.069 162.268 529.037 161.692C528.029 161.092 526.913 160.792 525.689 160.792C524.465 160.792 523.349 161.08 522.341 161.656C521.333 162.232 520.529 163.072 519.929 164.176C519.329 165.28 519.029 166.576 519.029 168.064C519.029 169.576 519.329 170.896 519.929 172.024C520.529 173.128 521.333 173.98 522.341 174.58C523.349 175.156 524.465 175.444 525.689 175.444C526.913 175.444 528.029 175.156 529.037 174.58C530.069 173.98 530.885 173.128 531.485 172.024C532.085 170.896 532.385 169.588 532.385 168.1ZM559.233 167.38C559.233 168.004 559.197 168.664 559.125 169.36H543.357C543.477 171.304 544.137 172.828 545.337 173.932C546.561 175.012 548.037 175.552 549.765 175.552C551.181 175.552 552.357 175.228 553.293 174.58C554.253 173.908 554.925 173.02 555.309 171.916H558.837C558.309 173.812 557.253 175.36 555.669 176.56C554.085 177.736 552.117 178.324 549.765 178.324C547.893 178.324 546.213 177.904 544.725 177.064C543.261 176.224 542.109 175.036 541.269 173.5C540.429 171.94 540.009 170.14 540.009 168.1C540.009 166.06 540.417 164.272 541.233 162.736C542.049 161.2 543.189 160.024 544.653 159.208C546.141 158.368 547.845 157.948 549.765 157.948C551.637 157.948 553.293 158.356 554.733 159.172C556.173 159.988 557.277 161.116 558.045 162.556C558.837 163.972 559.233 165.58 559.233 167.38ZM555.849 166.696C555.849 165.448 555.573 164.38 555.021 163.492C554.469 162.58 553.713 161.896 552.753 161.44C551.817 160.96 550.773 160.72 549.621 160.72C547.965 160.72 546.549 161.248 545.373 162.304C544.221 163.36 543.561 164.824 543.393 166.696H555.849ZM295.913 213.38C295.913 214.004 295.877 214.664 295.805 215.36H280.037C280.157 217.304 280.817 218.828 282.017 219.932C283.241 221.012 284.717 221.552 286.445 221.552C287.861 221.552 289.037 221.228 289.973 220.58C290.933 219.908 291.605 219.02 291.989 217.916H295.517C294.989 219.812 293.933 221.36 292.349 222.56C290.765 223.736 288.797 224.324 286.445 224.324C284.573 224.324 282.893 223.904 281.405 223.064C279.941 222.224 278.789 221.036 277.949 219.5C277.109 217.94 276.689 216.14 276.689 214.1C276.689 212.06 277.097 210.272 277.913 208.736C278.729 207.2 279.869 206.024 281.333 205.208C282.821 204.368 284.525 203.948 286.445 203.948C288.317 203.948 289.973 204.356 291.413 205.172C292.853 205.988 293.957 207.116 294.725 208.556C295.517 209.972 295.913 211.58 295.913 213.38ZM292.529 212.696C292.529 211.448 292.253 210.38 291.701 209.492C291.149 208.58 290.393 207.896 289.433 207.44C288.497 206.96 287.453 206.72 286.301 206.72C284.645 206.72 283.229 207.248 282.053 208.304C280.901 209.36 280.241 210.824 280.073 212.696H292.529ZM307.221 224.324C305.709 224.324 304.353 224.072 303.153 223.568C301.953 223.04 301.005 222.32 300.309 221.408C299.613 220.472 299.229 219.404 299.157 218.204H302.541C302.637 219.188 303.093 219.992 303.909 220.616C304.749 221.24 305.841 221.552 307.185 221.552C308.433 221.552 309.417 221.276 310.137 220.724C310.857 220.172 311.217 219.476 311.217 218.636C311.217 217.772 310.833 217.136 310.065 216.728C309.297 216.296 308.109 215.876 306.501 215.468C305.037 215.084 303.837 214.7 302.901 214.316C301.989 213.908 301.197 213.32 300.525 212.552C299.877 211.76 299.553 210.728 299.553 209.456C299.553 208.448 299.853 207.524 300.453 206.684C301.053 205.844 301.905 205.184 303.009 204.704C304.113 204.2 305.373 203.948 306.789 203.948C308.973 203.948 310.737 204.5 312.081 205.604C313.425 206.708 314.145 208.22 314.241 210.14H310.965C310.893 209.108 310.473 208.28 309.705 207.656C308.961 207.032 307.953 206.72 306.681 206.72C305.505 206.72 304.569 206.972 303.873 207.476C303.177 207.98 302.829 208.64 302.829 209.456C302.829 210.104 303.033 210.644 303.441 211.076C303.873 211.484 304.401 211.82 305.025 212.084C305.673 212.324 306.561 212.6 307.689 212.912C309.105 213.296 310.257 213.68 311.145 214.064C312.033 214.424 312.789 214.976 313.413 215.72C314.061 216.464 314.397 217.436 314.421 218.636C314.421 219.716 314.121 220.688 313.521 221.552C312.921 222.416 312.069 223.1 310.965 223.604C309.885 224.084 308.637 224.324 307.221 224.324ZM323.041 206.972V218.6C323.041 219.56 323.245 220.244 323.653 220.652C324.061 221.036 324.769 221.228 325.777 221.228H328.189V224H325.237C323.413 224 322.045 223.58 321.133 222.74C320.221 221.9 319.765 220.52 319.765 218.6V206.972H317.209V204.272H319.765V199.304H323.041V204.272H328.189V206.972H323.041ZM349.655 204.272V224H346.379V221.084C345.755 222.092 344.879 222.884 343.751 223.46C342.647 224.012 341.423 224.288 340.079 224.288C338.543 224.288 337.163 223.976 335.939 223.352C334.715 222.704 333.743 221.744 333.023 220.472C332.327 219.2 331.979 217.652 331.979 215.828V204.272H335.219V215.396C335.219 217.34 335.711 218.84 336.695 219.896C337.679 220.928 339.023 221.444 340.727 221.444C342.479 221.444 343.859 220.904 344.867 219.824C345.875 218.744 346.379 217.172 346.379 215.108V204.272H349.655ZM353.962 214.064C353.962 212.048 354.37 210.284 355.186 208.772C356.002 207.236 357.118 206.048 358.534 205.208C359.974 204.368 361.582 203.948 363.358 203.948C364.894 203.948 366.322 204.308 367.642 205.028C368.962 205.724 369.97 206.648 370.666 207.8V197.36H373.978V224H370.666V220.292C370.018 221.468 369.058 222.44 367.786 223.208C366.514 223.952 365.026 224.324 363.322 224.324C361.57 224.324 359.974 223.892 358.534 223.028C357.118 222.164 356.002 220.952 355.186 219.392C354.37 217.832 353.962 216.056 353.962 214.064ZM370.666 214.1C370.666 212.612 370.366 211.316 369.766 210.212C369.166 209.108 368.35 208.268 367.318 207.692C366.31 207.092 365.194 206.792 363.97 206.792C362.746 206.792 361.63 207.08 360.622 207.656C359.614 208.232 358.81 209.072 358.21 210.176C357.61 211.28 357.31 212.576 357.31 214.064C357.31 215.576 357.61 216.896 358.21 218.024C358.81 219.128 359.614 219.98 360.622 220.58C361.63 221.156 362.746 221.444 363.97 221.444C365.194 221.444 366.31 221.156 367.318 220.58C368.35 219.98 369.166 219.128 369.766 218.024C370.366 216.896 370.666 215.588 370.666 214.1ZM388.118 224.324C386.27 224.324 384.59 223.904 383.078 223.064C381.59 222.224 380.414 221.036 379.55 219.5C378.71 217.94 378.29 216.14 378.29 214.1C378.29 212.084 378.722 210.308 379.586 208.772C380.474 207.212 381.674 206.024 383.186 205.208C384.698 204.368 386.39 203.948 388.262 203.948C390.134 203.948 391.826 204.368 393.338 205.208C394.85 206.024 396.038 207.2 396.902 208.736C397.79 210.272 398.234 212.06 398.234 214.1C398.234 216.14 397.778 217.94 396.866 219.5C395.978 221.036 394.766 222.224 393.23 223.064C391.694 223.904 389.99 224.324 388.118 224.324ZM388.118 221.444C389.294 221.444 390.398 221.168 391.43 220.616C392.462 220.064 393.29 219.236 393.914 218.132C394.562 217.028 394.886 215.684 394.886 214.1C394.886 212.516 394.574 211.172 393.95 210.068C393.326 208.964 392.51 208.148 391.502 207.62C390.494 207.068 389.402 206.792 388.226 206.792C387.026 206.792 385.922 207.068 384.914 207.62C383.93 208.148 383.138 208.964 382.538 210.068C381.938 211.172 381.638 212.516 381.638 214.1C381.638 215.708 381.926 217.064 382.502 218.168C383.102 219.272 383.894 220.1 384.878 220.652C385.862 221.18 386.942 221.444 388.118 221.444ZM409.526 224.324C408.014 224.324 406.658 224.072 405.458 223.568C404.258 223.04 403.31 222.32 402.614 221.408C401.918 220.472 401.534 219.404 401.462 218.204H404.846C404.942 219.188 405.398 219.992 406.214 220.616C407.054 221.24 408.146 221.552 409.49 221.552C410.738 221.552 411.722 221.276 412.442 220.724C413.162 220.172 413.522 219.476 413.522 218.636C413.522 217.772 413.138 217.136 412.37 216.728C411.602 216.296 410.414 215.876 408.806 215.468C407.342 215.084 406.142 214.7 405.206 214.316C404.294 213.908 403.502 213.32 402.83 212.552C402.182 211.76 401.858 210.728 401.858 209.456C401.858 208.448 402.158 207.524 402.758 206.684C403.358 205.844 404.21 205.184 405.314 204.704C406.418 204.2 407.678 203.948 409.094 203.948C411.278 203.948 413.042 204.5 414.386 205.604C415.73 206.708 416.45 208.22 416.546 210.14H413.27C413.198 209.108 412.778 208.28 412.01 207.656C411.266 207.032 410.258 206.72 408.986 206.72C407.81 206.72 406.874 206.972 406.178 207.476C405.482 207.98 405.134 208.64 405.134 209.456C405.134 210.104 405.338 210.644 405.746 211.076C406.178 211.484 406.706 211.82 407.33 212.084C407.978 212.324 408.866 212.6 409.994 212.912C411.41 213.296 412.562 213.68 413.45 214.064C414.338 214.424 415.094 214.976 415.718 215.72C416.366 216.464 416.702 217.436 416.726 218.636C416.726 219.716 416.426 220.688 415.826 221.552C415.226 222.416 414.374 223.1 413.27 223.604C412.19 224.084 410.942 224.324 409.526 224.324ZM439.552 224.324C437.704 224.324 436.024 223.904 434.512 223.064C433.024 222.224 431.848 221.036 430.984 219.5C430.144 217.94 429.724 216.14 429.724 214.1C429.724 212.084 430.156 210.308 431.02 208.772C431.908 207.212 433.108 206.024 434.62 205.208C436.132 204.368 437.824 203.948 439.696 203.948C441.568 203.948 443.26 204.368 444.772 205.208C446.284 206.024 447.472 207.2 448.336 208.736C449.224 210.272 449.668 212.06 449.668 214.1C449.668 216.14 449.212 217.94 448.3 219.5C447.412 221.036 446.2 222.224 444.664 223.064C443.128 223.904 441.424 224.324 439.552 224.324ZM439.552 221.444C440.728 221.444 441.832 221.168 442.864 220.616C443.896 220.064 444.724 219.236 445.348 218.132C445.996 217.028 446.32 215.684 446.32 214.1C446.32 212.516 446.008 211.172 445.384 210.068C444.76 208.964 443.944 208.148 442.936 207.62C441.928 207.068 440.836 206.792 439.66 206.792C438.46 206.792 437.356 207.068 436.348 207.62C435.364 208.148 434.572 208.964 433.972 210.068C433.372 211.172 433.072 212.516 433.072 214.1C433.072 215.708 433.36 217.064 433.936 218.168C434.536 219.272 435.328 220.1 436.312 220.652C437.296 221.18 438.376 221.444 439.552 221.444ZM463.587 203.912C465.987 203.912 467.931 204.644 469.419 206.108C470.907 207.548 471.651 209.636 471.651 212.372V224H468.411V212.84C468.411 210.872 467.919 209.372 466.935 208.34C465.951 207.284 464.607 206.756 462.903 206.756C461.175 206.756 459.795 207.296 458.763 208.376C457.755 209.456 457.251 211.028 457.251 213.092V224H453.975V204.272H457.251V207.08C457.899 206.072 458.775 205.292 459.879 204.74C461.007 204.188 462.243 203.912 463.587 203.912ZM480.278 197.36V224H477.002V197.36H480.278ZM487.554 201.068C486.93 201.068 486.402 200.852 485.97 200.42C485.538 199.988 485.322 199.46 485.322 198.836C485.322 198.212 485.538 197.684 485.97 197.252C486.402 196.82 486.93 196.604 487.554 196.604C488.154 196.604 488.658 196.82 489.066 197.252C489.498 197.684 489.714 198.212 489.714 198.836C489.714 199.46 489.498 199.988 489.066 200.42C488.658 200.852 488.154 201.068 487.554 201.068ZM489.138 204.272V224H485.862V204.272H489.138ZM504.333 203.912C506.733 203.912 508.677 204.644 510.165 206.108C511.653 207.548 512.397 209.636 512.397 212.372V224H509.157V212.84C509.157 210.872 508.665 209.372 507.681 208.34C506.697 207.284 505.353 206.756 503.649 206.756C501.921 206.756 500.541 207.296 499.509 208.376C498.501 209.456 497.997 211.028 497.997 213.092V224H494.721V204.272H497.997V207.08C498.645 206.072 499.521 205.292 500.625 204.74C501.753 204.188 502.989 203.912 504.333 203.912ZM535.749 213.38C535.749 214.004 535.713 214.664 535.641 215.36H519.873C519.993 217.304 520.653 218.828 521.853 219.932C523.077 221.012 524.553 221.552 526.281 221.552C527.697 221.552 528.873 221.228 529.809 220.58C530.769 219.908 531.441 219.02 531.825 217.916H535.353C534.825 219.812 533.769 221.36 532.185 222.56C530.601 223.736 528.633 224.324 526.281 224.324C524.409 224.324 522.729 223.904 521.241 223.064C519.777 222.224 518.625 221.036 517.785 219.5C516.945 217.94 516.525 216.14 516.525 214.1C516.525 212.06 516.933 210.272 517.749 208.736C518.565 207.2 519.705 206.024 521.169 205.208C522.657 204.368 524.361 203.948 526.281 203.948C528.153 203.948 529.809 204.356 531.249 205.172C532.689 205.988 533.793 207.116 534.561 208.556C535.353 209.972 535.749 211.58 535.749 213.38ZM532.365 212.696C532.365 211.448 532.089 210.38 531.537 209.492C530.985 208.58 530.229 207.896 529.269 207.44C528.333 206.96 527.289 206.72 526.137 206.72C524.481 206.72 523.065 207.248 521.889 208.304C520.737 209.36 520.077 210.824 519.909 212.696H532.365ZM541.117 224.216C540.493 224.216 539.965 224 539.533 223.568C539.101 223.136 538.885 222.608 538.885 221.984C538.885 221.36 539.101 220.832 539.533 220.4C539.965 219.968 540.493 219.752 541.117 219.752C541.717 219.752 542.221 219.968 542.629 220.4C543.061 220.832 543.277 221.36 543.277 221.984C543.277 222.608 543.061 223.136 542.629 223.568C542.221 224 541.717 224.216 541.117 224.216Z" fill="#D4C2FF"/>
</svg>
